<svg width="128" height="40" viewBox="0 0 128 40" fill="none" xmlns="http://www.w3.org/2000/svg">
<path fill-rule="evenodd" clip-rule="evenodd" d="M44.7018 13.8813L38.3158 7.42807L31.9296 13.8813L25.5437 7.42807L19.1578 0.974609L12.7719 7.42807L6.38593 13.8813L0 20.3345L6.38593 26.7879L12.7719 33.2411L19.1578 26.7879L25.5437 33.2411L31.9296 39.6943L38.3158 33.2411L44.7018 26.7879L51.0877 20.3345L44.7018 13.8813Z" fill="white"/>
<path fill-rule="evenodd" clip-rule="evenodd" d="M64.1578 14.0098V26.6635H67.0345V22.5053H69.1179L72.4185 26.6635H75.6094V26.4464L72.0686 22.2528C74.5396 21.3855 75.0373 19.9202 75.0561 18.2755V18.2755C75.0561 16.0523 73.396 14.0098 70.2798 14.0098V14.0098H64.1578ZM67.0342 16.4321H70.2795C71.6255 16.4321 72.1972 17.4808 72.2158 18.3481V18.3481C72.2158 19.144 71.6439 20.1206 70.3167 20.1206V20.1206H67.0342V16.4321Z" fill="white"/>
<path fill-rule="evenodd" clip-rule="evenodd" d="M79.1578 26.7879H81.9649V13.8813H79.1578V26.7879Z" fill="white"/>
<path fill-rule="evenodd" clip-rule="evenodd" d="M87.2063 14.0098V26.6635H92.3826C96.8012 26.6635 98.6579 23.5543 98.6579 20.2462V20.2462C98.6579 16.9385 96.7284 14.0098 92.3826 14.0098V14.0098H87.2063ZM89.9834 16.5589H92.3827C95.0155 16.5589 95.8804 18.3843 95.8804 20.2104V20.2104C95.8804 22.0353 95.1229 24.0604 92.3827 24.0604V24.0604H89.9834V16.5589Z" fill="white"/>
<path fill-rule="evenodd" clip-rule="evenodd" d="M101.631 20.6437C101.631 23.8998 103.449 27.2456 108.256 27.2456V27.2456C110.553 27.2456 112.263 26.4592 113.332 24.9206V24.9206V19.4631H107.953V21.7887H110.927V23.7926C109.966 24.5269 109.147 24.6695 108.274 24.6695V24.6695C105.336 24.6695 104.356 22.4331 104.356 20.6437V20.6437C104.356 17.9062 105.906 16.5462 108.274 16.5462V16.5462C109.271 16.5462 110.429 16.9217 111.195 17.6559V17.6559L112.922 15.9203C111.497 14.4523 109.966 13.9873 108.274 13.9873V13.9873C103.698 13.9873 101.631 17.1189 101.631 20.6437V20.6437Z" fill="white"/>
<path fill-rule="evenodd" clip-rule="evenodd" d="M117.895 13.8813V26.7879H128V24.1328H120.796V21.5334H127.337V19.0073H120.796V16.5176H127.735V13.8813H117.895Z" fill="white"/>
</svg>
