<svg width="128" height="39" viewBox="0 0 128 39" fill="none" xmlns="http://www.w3.org/2000/svg">
<path fill-rule="evenodd" clip-rule="evenodd" d="M44.7018 12.9203L38.3158 6.46026L31.9296 12.9203L25.5437 6.46026L19.1578 0L12.7719 6.46026L6.38593 12.9203L0 19.3803L6.38593 25.8405L12.7719 32.3005L19.1578 25.8405L25.5437 32.3005L31.9296 38.7605L38.3158 32.3005L44.7018 25.8405L51.0877 19.3803L44.7018 12.9203Z" fill="black"/>
<path fill-rule="evenodd" clip-rule="evenodd" d="M64.1582 13.0485V25.7156H67.0348V21.553H69.1183L72.4189 25.7156H75.6098V25.4982L72.0689 21.3001C74.54 20.432 75.0376 18.9651 75.0564 17.3187V17.3187C75.0564 15.0931 73.3964 13.0485 70.2802 13.0485V13.0485H64.1582ZM67.0345 15.4733H70.2799C71.6259 15.4733 72.1976 16.5232 72.2161 17.3913V17.3913C72.2161 18.1881 71.6442 19.1657 70.317 19.1657V19.1657H67.0345V15.4733Z" fill="black"/>
<path fill-rule="evenodd" clip-rule="evenodd" d="M79.1582 25.8405H81.9652V12.9203H79.1582V25.8405Z" fill="black"/>
<path fill-rule="evenodd" clip-rule="evenodd" d="M87.2061 13.0485V25.7156H92.3824C96.8009 25.7156 98.6576 22.6031 98.6576 19.2914V19.2914C98.6576 15.9803 96.7282 13.0485 92.3824 13.0485V13.0485H87.2061ZM89.9831 15.6003H92.3824C95.0152 15.6003 95.8801 17.4277 95.8801 19.2557V19.2557C95.8801 21.0826 95.1226 23.1098 92.3824 23.1098V23.1098H89.9831V15.6003Z" fill="black"/>
<path fill-rule="evenodd" clip-rule="evenodd" d="M101.632 19.6895C101.632 22.9491 103.449 26.2984 108.256 26.2984V26.2984C110.554 26.2984 112.264 25.5111 113.332 23.9709V23.9709V18.5077H107.954V20.8357H110.928V22.8417C109.966 23.5769 109.147 23.7196 108.275 23.7196V23.7196C105.336 23.7196 104.356 21.4808 104.356 19.6895V19.6895C104.356 16.9491 105.906 15.5877 108.275 15.5877V15.5877C109.271 15.5877 110.43 15.9637 111.195 16.6985V16.6985L112.922 14.9612C111.498 13.4916 109.966 13.0261 108.275 13.0261V13.0261C103.698 13.0261 101.632 16.1611 101.632 19.6895V19.6895Z" fill="black"/>
<path fill-rule="evenodd" clip-rule="evenodd" d="M117.895 12.9203V25.8405H128V23.1825H120.796V20.5804H127.337V18.0517H120.796V15.5594H127.735V12.9203H117.895Z" fill="black"/>
</svg>
